<svg width="61" height="37" viewBox="0 0 61 37" fill="none" xmlns="http://www.w3.org/2000/svg">
<path fill-rule="evenodd" clip-rule="evenodd" d="M13.4996 27.3L11.1996 24.8L8.19961 27.1L3.89961 21.7L16.3996 5.8L12.1996 1.1L7.79961 3.8L0.599609 0L8.49961 6.9L11.1996 5.2L12.2996 6.6L0.599609 21.3L8.19961 30.5L10.8996 27.9L10.7996 32.9L16.6996 36.6L13.0996 32.1L13.4996 27.3ZM14.1992 11.2001L16.0992 8.1001H24.9992L32.4992 17.2001V22.5001L23.2992 11.2001H14.1992ZM23.5008 36.5998H19.8008L30.7008 22.2998L32.5008 24.3998V25.3998L23.5008 36.5998ZM9.6 8.2L7.6 11H3.5L0 6L4.3 8.1L9.6 8.2ZM10.7008 17.6002L13.5008 16.3002L12.6008 14.2002L10.3008 17.1002L10.7008 17.6002ZM41.6 15.1001C44 15.1001 45.5 15.5001 46.2 16.3001C46.9 17.1001 47.2 18.8001 46.8 21.6001C46.8 24.6001 46.5 26.5001 45.8 27.3001C45.1 28.1001 43.4 28.5001 40.8 28.5001H40.2H39.6C37.2 28.5001 35.7 28.1001 35 27.3001C34.3 26.5001 34 24.8001 34 22.2001V20.8001H37.8V22.3001C37.8 24.2001 38 25.3001 38.3 25.7001C38.6 26.1001 39.4 26.3001 40.6 26.3001C41.8 26.3001 42.5 26.1001 42.8 25.7001C43.1 25.3001 43.3 24.0001 43.3 21.8001C43.3 19.6001 43.2 18.3001 42.9 17.9001C42.7 17.5001 41.9 17.3001 40.7 17.3001C39.4 17.3001 38.6 17.5001 38.4 17.9001C38.3 18.1001 38.2 18.5001 38.1 19.2001H34.4C34.6 17.8001 34.9 16.8001 35.3 16.3001C36 15.5001 37.6 15.1001 40.3 15.1001H40.9H41.6ZM52.9992 17.0002L51.7992 15.2002H46.6992L50.3992 20.7002L52.9992 17.0002ZM60.7008 15.2002L56.2008 21.8002L60.6008 28.2002H55.5008L53.7008 25.6002L51.9008 28.2002H46.8008L50.7008 22.6002L54.1008 17.6002L55.7008 15.2002H60.7008ZM31.1 34.7999C30.8333 34.7999 30.6111 34.7555 30.463 34.7258L30.4629 34.7258L30.4627 34.7258L30.4626 34.7257C30.3887 34.711 30.3333 34.6999 30.3 34.6999C30.2 34.5999 30.2 34.4999 30.2 34.1999C30.2 33.9999 30.3 33.7999 30.4 33.7999C30.5 33.6999 30.8 33.6999 31.1 33.6999C31.4 33.6999 31.6 33.6999 31.7 33.7999C31.8 33.8999 31.8 33.9999 31.8 34.2999H32.2C32.2 33.8999 32.1 33.6999 32 33.5999C31.9 33.4999 31.5 33.3999 31.1 33.3999C30.6 33.3999 30.3 33.4999 30.2 33.5999C30 33.6999 30 33.9999 30 34.2999C30 34.7999 30.3 35.0999 30.8 35.0999H31.2H31.6C31.7172 35.0999 31.8 35.1342 31.8686 35.1626C31.9172 35.1827 31.9586 35.1999 32 35.1999C32.1 35.2999 32.1 35.3999 32.1 35.5999C32.1 35.8999 32.1 36.0999 32 36.1999C31.9 36.2999 31.7 36.2999 31.2 36.2999C30.8 36.2999 30.6 36.2999 30.5 36.1999C30.4 36.0999 30.4 35.9999 30.4 35.6999V35.5999H30V35.6999C30 36.0999 30.1 36.2999 30.2 36.3999C30.4 36.4999 30.7 36.5999 31.1 36.5999C31.6 36.5999 32 36.4999 32.1 36.3999C32.3 36.2999 32.3 35.9999 32.3 35.5999C32.3 35.1999 32.2 34.9999 32.1 34.8999C32.0691 34.8999 32.0095 34.8904 31.9273 34.8772C31.7432 34.8476 31.4455 34.7999 31.1 34.7999ZM36.7992 34.6999L36.8992 34.4999L37.5992 33.3999H37.9992L36.7992 35.2999V36.5999H36.3992V35.2999L35.1992 33.3999H35.5992L36.2992 34.4999L36.3992 34.6999C36.4992 34.6999 36.4992 34.7999 36.4992 34.7999L36.5992 34.8999C36.6992 34.8999 36.6992 34.7999 36.6992 34.7999L36.7992 34.6999ZM42.2 34.7999C41.9333 34.7999 41.7111 34.7555 41.563 34.7258L41.5629 34.7258L41.5626 34.7258C41.4887 34.711 41.4333 34.6999 41.4 34.6999C41.3 34.5999 41.3 34.4999 41.3 34.1999C41.3 33.9999 41.4 33.7999 41.5 33.7999C41.6 33.6999 41.9 33.6999 42.2 33.6999C42.5 33.6999 42.7 33.6999 42.8 33.7999C42.9 33.8999 42.9 33.9999 42.9 34.2999H43.3C43.3 33.8999 43.2 33.6999 43.1 33.5999C43 33.4999 42.6 33.3999 42.2 33.3999C41.7 33.3999 41.4 33.4999 41.3 33.5999C41.1 33.6999 41.1 33.9999 41.1 34.2999C41.1 34.7999 41.4 35.0999 41.9 35.0999H42.3H42.7C42.8172 35.0999 42.9 35.1342 42.9686 35.1626C43.0172 35.1827 43.0586 35.1999 43.1 35.1999C43.2 35.2999 43.2 35.3999 43.2 35.5999C43.2 35.8999 43.2 36.0999 43.1 36.1999C43 36.2999 42.8 36.2999 42.3 36.2999C41.9 36.2999 41.7 36.2999 41.6 36.1999C41.5 36.0999 41.5 35.9999 41.5 35.6999V35.5999H41V35.6999C41 36.0999 41.1 36.2999 41.2 36.3999C41.4 36.4999 41.7 36.5999 42.1 36.5999C42.6 36.5999 43 36.4999 43.1 36.3999C43.3 36.2999 43.3 35.9999 43.3 35.5999C43.3 35.1999 43.2 34.9999 43.1 34.8999C43.0691 34.8999 43.0191 34.8904 42.95 34.8772C42.7955 34.8476 42.5455 34.7999 42.2 34.7999ZM47.4004 33.6999H46.4004V33.3999H48.8004V33.6999H47.8004V36.5999H47.4004V33.6999ZM51.9004 36.5999H53.9004V36.2999H52.2004V35.0999H53.8004V34.7999H52.2004V33.6999H53.9004V33.3999H51.9004V36.5999ZM59.2008 35.6998L59.3008 35.3998L60.3008 33.2998H60.9008V36.4998H60.5008V33.9998V33.7998L60.4008 33.8998L59.3008 36.4998H58.9008L57.8008 33.8998L57.7008 33.7998V33.9998V36.4998H57.3008V33.2998H57.9008L58.7008 35.3998L58.8008 35.6998L58.9008 35.8998L59.0008 36.0998L59.1008 35.8998C59.2008 35.7998 59.2008 35.6998 59.2008 35.6998Z" fill="url(#paint0_linear_7455_9403)"/>
<defs>
<linearGradient id="paint0_linear_7455_9403" x1="1" y1="-2" x2="67.5" y2="46.5" gradientUnits="userSpaceOnUse">
<stop stop-color="#0084FF"/>
<stop offset="1" stop-color="#6F52E0"/>
</linearGradient>
</defs>
</svg>
